<svg xmlns="http://www.w3.org/2000/svg" xmlns:xlink="http://www.w3.org/1999/xlink" version="1.1" data-diagram-type="DESCRIPTION" style="width:1855px;height:1149px;background:#FFFFFF;" width="1855px" height="1149px" viewBox="0 0 1855 1149" zoomAndPan="magnify" preserveAspectRatio="none" contentStyleType="text/css"><?plantuml 1.2026.8?><defs/><g font-family="sans-serif" lengthAdjust="spacing"><!--cluster Couche présentation--><g class="cluster" data-qualified-name="Couche pr.sentation" id="ent0001" data-source-line="12"><rect x="1285" y="7" width="556" height="227.19" fill="none" style="stroke:#181818;stroke-width:1;" rx="2.5" ry="2.5"/><text x="1481.037" y="21.995" fill="#000" font-size="14" textLength="163.926" font-weight="700">Couche présentation</text></g><!--cluster Couche métier--><g class="cluster" data-qualified-name="Couche m.tier" id="ent0005" data-source-line="18"><rect x="806" y="283.19" width="913" height="509.48" fill="none" style="stroke:#181818;stroke-width:1;" rx="2.5" ry="2.5"/><text x="1205.266" y="298.185" fill="#000" font-size="14" textLength="114.468" font-weight="700">Couche métier</text></g><!--cluster Couche données--><g class="cluster" data-qualified-name="Couche donn.es" id="ent0013" data-source-line="28"><rect x="7" y="825.67" width="458" height="226.19" fill="none" style="stroke:#181818;stroke-width:1;" rx="2.5" ry="2.5"/><text x="171.305" y="840.665" fill="#000" font-size="14" textLength="129.391" font-weight="700">Couche données</text></g><!--cluster Systèmes externes--><g class="cluster" data-qualified-name="Syst.mes externes" id="ent0016" data-source-line="33"><rect x="268" y="695.38" width="514" height="97.29" fill="none" style="stroke:#181818;stroke-width:1;" rx="2.5" ry="2.5"/><text x="449.784" y="710.375" fill="#000" font-size="14" textLength="150.432" font-weight="700">Systèmes externes</text></g><!--entity UIC--><g class="entity" data-qualified-name="Couche pr.sentation.UIC" id="ent0002" data-source-line="13"><rect x="1301.1" y="42" width="257.793" height="62.594" fill="#F1F1F1" style="stroke:#181818;stroke-width:0.5;" rx="2.5" ry="2.5"/><rect x="1538.893" y="47" width="15" height="10" fill="#F1F1F1" style="stroke:#181818;stroke-width:0.5;"/><rect x="1536.893" y="49" width="4" height="2" fill="#F1F1F1" style="stroke:#181818;stroke-width:0.5;"/><rect x="1536.893" y="53" width="4" height="2" fill="#F1F1F1" style="stroke:#181818;stroke-width:0.5;"/><text x="1316.1" y="74.995" fill="#000" font-size="14" textLength="102.382">Web Coworker</text><text x="1316.1" y="91.292" fill="#000" font-size="14" textLength="217.793">(réservation, ateliers, factures)</text></g><!--entity UIB--><g class="entity" data-qualified-name="Couche pr.sentation.UIB" id="ent0003" data-source-line="14"><rect x="1588.77" y="42" width="236.451" height="62.594" fill="#F1F1F1" style="stroke:#181818;stroke-width:0.5;" rx="2.5" ry="2.5"/><rect x="1805.221" y="47" width="15" height="10" fill="#F1F1F1" style="stroke:#181818;stroke-width:0.5;"/><rect x="1803.221" y="49" width="4" height="2" fill="#F1F1F1" style="stroke:#181818;stroke-width:0.5;"/><rect x="1803.221" y="53" width="4" height="2" fill="#F1F1F1" style="stroke:#181818;stroke-width:0.5;"/><text x="1603.77" y="74.995" fill="#000" font-size="14" textLength="77.663">Back-office</text><text x="1603.77" y="91.292" fill="#000" font-size="14" textLength="196.451">(accueil, gérant, animateur)</text></g><!--entity API--><g class="entity" data-qualified-name="Couche pr.sentation.API" id="ent0004" data-source-line="15"><rect x="1402.63" y="155.59" width="320.731" height="62.594" fill="#F1F1F1" style="stroke:#181818;stroke-width:0.5;" rx="2.5" ry="2.5"/><rect x="1703.361" y="160.59" width="15" height="10" fill="#F1F1F1" style="stroke:#181818;stroke-width:0.5;"/><rect x="1701.361" y="162.59" width="4" height="2" fill="#F1F1F1" style="stroke:#181818;stroke-width:0.5;"/><rect x="1701.361" y="166.59" width="4" height="2" fill="#F1F1F1" style="stroke:#181818;stroke-width:0.5;"/><text x="1417.63" y="188.585" fill="#000" font-size="14" textLength="62.61">API REST</text><text x="1417.63" y="204.882" fill="#000" font-size="14" textLength="280.731">(contrôleurs, DTO, validation de format)</text></g><!--entity CPT--><g class="entity" data-qualified-name="Couche m.tier.CPT" id="ent0006" data-source-line="19"><rect x="1407.51" y="730.38" width="200.973" height="46.297" fill="#F1F1F1" style="stroke:#181818;stroke-width:0.5;" rx="2.5" ry="2.5"/><rect x="1588.483" y="735.38" width="15" height="10" fill="#F1F1F1" style="stroke:#181818;stroke-width:0.5;"/><rect x="1586.483" y="737.38" width="4" height="2" fill="#F1F1F1" style="stroke:#181818;stroke-width:0.5;"/><rect x="1586.483" y="741.38" width="4" height="2" fill="#F1F1F1" style="stroke:#181818;stroke-width:0.5;"/><text x="1422.51" y="763.375" fill="#000" font-size="14" textLength="160.973">Compte &amp; habilitations</text></g><!--entity RES--><g class="entity" data-qualified-name="Couche m.tier.RES" id="ent0007" data-source-line="20"><rect x="1175.16" y="446.49" width="123.686" height="46.297" fill="#F1F1F1" style="stroke:#181818;stroke-width:0.5;" rx="2.5" ry="2.5"/><rect x="1278.846" y="451.49" width="15" height="10" fill="#F1F1F1" style="stroke:#181818;stroke-width:0.5;"/><rect x="1276.846" y="453.49" width="4" height="2" fill="#F1F1F1" style="stroke:#181818;stroke-width:0.5;"/><rect x="1276.846" y="457.49" width="4" height="2" fill="#F1F1F1" style="stroke:#181818;stroke-width:0.5;"/><text x="1190.16" y="479.485" fill="#000" font-size="14" textLength="83.686">Réservation</text></g><!--entity ATL--><g class="entity" data-qualified-name="Couche m.tier.ATL" id="ent0008" data-source-line="21"><rect x="1050.44" y="446.49" width="93.122" height="46.297" fill="#F1F1F1" style="stroke:#181818;stroke-width:0.5;" rx="2.5" ry="2.5"/><rect x="1123.562" y="451.49" width="15" height="10" fill="#F1F1F1" style="stroke:#181818;stroke-width:0.5;"/><rect x="1121.562" y="453.49" width="4" height="2" fill="#F1F1F1" style="stroke:#181818;stroke-width:0.5;"/><rect x="1121.562" y="457.49" width="4" height="2" fill="#F1F1F1" style="stroke:#181818;stroke-width:0.5;"/><text x="1065.44" y="479.485" fill="#000" font-size="14" textLength="53.122">Ateliers</text></g><!--entity FAC--><g class="entity" data-qualified-name="Couche m.tier.FAC" id="ent0009" data-source-line="22"><rect x="1177.08" y="318.19" width="119.844" height="46.297" fill="#F1F1F1" style="stroke:#181818;stroke-width:0.5;" rx="2.5" ry="2.5"/><rect x="1276.924" y="323.19" width="15" height="10" fill="#F1F1F1" style="stroke:#181818;stroke-width:0.5;"/><rect x="1274.924" y="325.19" width="4" height="2" fill="#F1F1F1" style="stroke:#181818;stroke-width:0.5;"/><rect x="1274.924" y="329.19" width="4" height="2" fill="#F1F1F1" style="stroke:#181818;stroke-width:0.5;"/><text x="1192.08" y="351.185" fill="#000" font-size="14" textLength="79.844">Facturation</text></g><!--entity TAR--><g class="entity" data-qualified-name="Couche m.tier.TAR" id="ent0010" data-source-line="23"><rect x="1396.66" y="582.93" width="118.688" height="46.297" fill="#F1F1F1" style="stroke:#181818;stroke-width:0.5;" rx="2.5" ry="2.5"/><rect x="1495.348" y="587.93" width="15" height="10" fill="#F1F1F1" style="stroke:#181818;stroke-width:0.5;"/><rect x="1493.348" y="589.93" width="4" height="2" fill="#F1F1F1" style="stroke:#181818;stroke-width:0.5;"/><rect x="1493.348" y="593.93" width="4" height="2" fill="#F1F1F1" style="stroke:#181818;stroke-width:0.5;"/><text x="1411.66" y="615.925" fill="#000" font-size="14" textLength="78.688">Tarification</text></g><!--entity PAY--><g class="entity" data-qualified-name="Couche m.tier.PAY" id="ent0011" data-source-line="24"><rect x="822.4" y="574.78" width="271.191" height="62.594" fill="#F1F1F1" style="stroke:#181818;stroke-width:0.5;" rx="2.5" ry="2.5"/><rect x="1073.591" y="579.78" width="15" height="10" fill="#F1F1F1" style="stroke:#181818;stroke-width:0.5;"/><rect x="1071.591" y="581.78" width="4" height="2" fill="#F1F1F1" style="stroke:#181818;stroke-width:0.5;"/><rect x="1071.591" y="585.78" width="4" height="2" fill="#F1F1F1" style="stroke:#181818;stroke-width:0.5;"/><text x="837.4" y="607.775" fill="#000" font-size="14" textLength="142.017">Passerelle paiement</text><text x="837.4" y="624.072" fill="#000" font-size="14" textLength="231.191">(port IPaiement, adaptateur PSP)</text></g><!--entity NOT--><g class="entity" data-qualified-name="Couche m.tier.NOT" id="ent0012" data-source-line="25"><rect x="1123.29" y="574.78" width="243.41" height="62.594" fill="#F1F1F1" style="stroke:#181818;stroke-width:0.5;" rx="2.5" ry="2.5"/><rect x="1346.7" y="579.78" width="15" height="10" fill="#F1F1F1" style="stroke:#181818;stroke-width:0.5;"/><rect x="1344.7" y="581.78" width="4" height="2" fill="#F1F1F1" style="stroke:#181818;stroke-width:0.5;"/><rect x="1344.7" y="585.78" width="4" height="2" fill="#F1F1F1" style="stroke:#181818;stroke-width:0.5;"/><text x="1138.29" y="607.775" fill="#000" font-size="14" textLength="80.329">Notification</text><text x="1138.29" y="624.072" fill="#000" font-size="14" textLength="203.41">(consomme les événements)</text></g><!--entity REPO--><g class="entity" data-qualified-name="Couche donn.es.REPO" id="ent0014" data-source-line="29"><rect x="23.24" y="860.67" width="425.513" height="78.891" fill="#F1F1F1" style="stroke:#181818;stroke-width:0.5;" rx="2.5" ry="2.5"/><rect x="428.753" y="865.67" width="15" height="10" fill="#F1F1F1" style="stroke:#181818;stroke-width:0.5;"/><rect x="426.753" y="867.67" width="4" height="2" fill="#F1F1F1" style="stroke:#181818;stroke-width:0.5;"/><rect x="426.753" y="871.67" width="4" height="2" fill="#F1F1F1" style="stroke:#181818;stroke-width:0.5;"/><text x="38.24" y="893.665" fill="#000" font-size="14" textLength="49.629">Dépôts</text><text x="38.24" y="909.962" fill="#000" font-size="14" textLength="385.513">Reservation-, Facture-, Atelier-, UtilisateurRepository…</text><text x="38.24" y="926.259" fill="#000" font-size="14" textLength="367.37">(implémentent des interfaces définies par le métier)</text></g><!--entity DB--><g class="entity" data-qualified-name="Couche donn.es.DB" id="ent0015" data-source-line="30"><path d="M185.62,1000.56 C185.62,990.56 235.996,990.56 235.996,990.56 C235.996,990.56 286.373,990.56 286.373,1000.56 L286.373,1025.857 C286.373,1035.857 235.996,1035.857 235.996,1035.857 C235.996,1035.857 185.62,1035.857 185.62,1025.857 L185.62,1000.56" style="stroke:#181818;stroke-width:0.5;" fill="#F1F1F1"/><path d="M185.62,1000.56 C185.62,1010.56 235.996,1010.56 235.996,1010.56 C235.996,1010.56 286.373,1010.56 286.373,1000.56" style="stroke:#181818;stroke-width:0.5;" fill="none"/><text x="195.62" y="1027.555" fill="#000" font-size="14" textLength="80.753">PostgreSQL</text></g><!--entity PSP--><g class="entity" data-qualified-name="Syst.mes externes.PSP" id="ent0017" data-source-line="34"><rect x="284.33" y="730.38" width="243.342" height="46.297" fill="#F1F1F1" style="stroke:#181818;stroke-width:0.5;" rx="2.5" ry="2.5"/><rect x="507.672" y="735.38" width="15" height="10" fill="#F1F1F1" style="stroke:#181818;stroke-width:0.5;"/><rect x="505.672" y="737.38" width="4" height="2" fill="#F1F1F1" style="stroke:#181818;stroke-width:0.5;"/><rect x="505.672" y="741.38" width="4" height="2" fill="#F1F1F1" style="stroke:#181818;stroke-width:0.5;"/><text x="299.33" y="763.375" fill="#000" font-size="14" textLength="203.342">Prestataire de paiement (A6)</text></g><!--entity MAIL--><g class="entity" data-qualified-name="Syst.mes externes.MAIL" id="ent0018" data-source-line="35"><rect x="557.95" y="730.38" width="208.096" height="46.297" fill="#F1F1F1" style="stroke:#181818;stroke-width:0.5;" rx="2.5" ry="2.5"/><rect x="746.046" y="735.38" width="15" height="10" fill="#F1F1F1" style="stroke:#181818;stroke-width:0.5;"/><rect x="744.046" y="737.38" width="4" height="2" fill="#F1F1F1" style="stroke:#181818;stroke-width:0.5;"/><rect x="744.046" y="741.38" width="4" height="2" fill="#F1F1F1" style="stroke:#181818;stroke-width:0.5;"/><text x="572.95" y="763.375" fill="#000" font-size="14" textLength="168.096">Service d'e-mailing (A7)</text></g><!--link UIC to API--><g class="link" data-entity-1="ent0002" data-entity-2="ent0004" id="lnk19" data-source-line="39" data-link-type="dependency"><path d="M1466.69,105.09 C1485.3,120.7 1504,136.386 1522.59,151.986" style="stroke:#181818;stroke-width:1;stroke-dasharray:7,7;" fill="none" id="UIC-to-API"/><polygon points="1526.42,155.2,1522.097,146.351,1522.59,151.986,1516.955,152.479,1526.42,155.2" fill="#181818" style="stroke:#181818;stroke-width:1;stroke-linejoin:miter;stroke-miterlimit:10;"/></g><!--link UIB to API--><g class="link" data-entity-1="ent0003" data-entity-2="ent0004" id="lnk20" data-source-line="40" data-link-type="dependency"><path d="M1667.27,105.09 C1647.12,120.7 1626.682,136.537 1606.552,152.137" style="stroke:#181818;stroke-width:1;stroke-dasharray:7,7;" fill="none" id="UIB-to-API"/><polygon points="1602.6,155.2,1612.164,152.849,1606.552,152.137,1607.264,146.525,1602.6,155.2" fill="#181818" style="stroke:#181818;stroke-width:1;stroke-linejoin:miter;stroke-miterlimit:10;"/></g><!--link API to RES--><g class="link" data-entity-1="ent0004" data-entity-2="ent0007" id="lnk21" data-source-line="41" data-link-type="dependency"><path d="M1570.42,218.56 C1581.26,271.85 1593.6,379.83 1528,421.49 C1490.95,445.01 1377.923,457.757 1304.053,463.887" style="stroke:#181818;stroke-width:1;stroke-dasharray:7,7;" fill="none" id="API-to-RES"/><polygon points="1299.07,464.3,1308.37,467.542,1304.053,463.887,1307.708,459.569,1299.07,464.3" fill="#181818" style="stroke:#181818;stroke-width:1;stroke-linejoin:miter;stroke-miterlimit:10;"/><text x="1580.08" y="345.907" fill="#000" font-size="13" textLength="81.542">IReservation</text></g><!--link API to ATL--><g class="link" data-entity-1="ent0004" data-entity-2="ent0008" id="lnk22" data-source-line="42" data-link-type="dependency"><path d="M1539.94,218.32 C1528.74,234.45 1516.02,255.05 1508,275.19 C1483.48,336.77 1528.54,377.45 1479,421.49 C1452.43,445.11 1194.79,439.14 1160,446.49 C1154.67,447.61 1153.958,447.63 1148.538,449.26" style="stroke:#181818;stroke-width:1;stroke-dasharray:7,7;" fill="none" id="API-to-ATL"/><polygon points="1143.75,450.7,1153.521,451.939,1148.538,449.26,1151.217,444.278,1143.75,450.7" fill="#181818" style="stroke:#181818;stroke-width:1;stroke-linejoin:miter;stroke-miterlimit:10;"/><text x="1509" y="345.907" fill="#000" font-size="13" textLength="53.162">IAteliers</text></g><!--link API to FAC--><g class="link" data-entity-1="ent0004" data-entity-2="ent0009" id="lnk23" data-source-line="43" data-link-type="dependency"><path d="M1491.23,218.68 C1468.66,228.55 1443.71,239.65 1421,250.19 C1373.08,272.42 1323.312,296.963 1286.212,315.523" style="stroke:#181818;stroke-width:1;stroke-dasharray:7,7;" fill="none" id="API-to-FAC"/><polygon points="1281.74,317.76,1291.579,317.311,1286.212,315.523,1287.999,310.156,1281.74,317.76" fill="#181818" style="stroke:#181818;stroke-width:1;stroke-linejoin:miter;stroke-miterlimit:10;"/><text x="1422" y="263.257" fill="#000" font-size="13" textLength="59.877">IFactures</text></g><!--link API to CPT--><g class="link" data-entity-1="ent0004" data-entity-2="ent0006" id="lnk24" data-source-line="44" data-link-type="dependency"><path d="M1645.39,218.61 C1695.15,243.07 1749,282.82 1749,340.34 C1749,340.34 1749,340.34 1749,607.08 C1749,676.47 1679.648,712.225 1613.608,731.565" style="stroke:#181818;stroke-width:1;stroke-dasharray:7,7;" fill="none" id="API-to-CPT"/><polygon points="1608.81,732.97,1618.571,734.279,1613.608,731.565,1616.323,726.602,1608.81,732.97" fill="#181818" style="stroke:#181818;stroke-width:1;stroke-linejoin:miter;stroke-miterlimit:10;"/><text x="1750" y="474.197" fill="#000" font-size="13" textLength="78.628">IHabilitation</text></g><!--link RES to TAR--><g class="link" data-entity-1="ent0007" data-entity-2="ent0010" id="lnk25" data-source-line="47" data-link-type="dependency"><path d="M1298.99,471.63 C1339.44,475.45 1390.88,486.78 1425,517.78 C1443.33,534.44 1450.055,557.709 1453.125,577.539" style="stroke:#181818;stroke-width:1;stroke-dasharray:7,7;" fill="none" id="RES-to-TAR"/><polygon points="1453.89,582.48,1456.466,572.974,1453.125,577.539,1448.56,574.198,1453.89,582.48" fill="#181818" style="stroke:#181818;stroke-width:1;stroke-linejoin:miter;stroke-miterlimit:10;"/><text x="1446.13" y="538.347" fill="#000" font-size="13" textLength="76.902">ITarification</text></g><!--link RES to CPT--><g class="link" data-entity-1="ent0007" data-entity-2="ent0006" id="lnk26" data-source-line="48" data-link-type="dependency"><path d="M1299.28,472.93 C1375.02,477.01 1496.84,488.1 1530,517.78 C1585.12,567.13 1595.48,609.91 1570,679.38 C1562.83,698.91 1551.445,713.304 1538.025,726.504" style="stroke:#181818;stroke-width:1;stroke-dasharray:7,7;" fill="none" id="RES-to-CPT"/><polygon points="1534.46,730.01,1543.681,726.551,1538.025,726.504,1538.071,720.847,1534.46,730.01" fill="#181818" style="stroke:#181818;stroke-width:1;stroke-linejoin:miter;stroke-miterlimit:10;"/><text x="1584.21" y="610.647" fill="#000" font-size="13" textLength="126.915">IAbonnementQuery</text></g><!--link RES to PAY--><g class="link" data-entity-1="ent0007" data-entity-2="ent0011" id="lnk27" data-source-line="49" data-link-type="dependency"><path d="M1175.08,489.29 C1169.67,490.59 1164.26,491.78 1159,492.78 C1103.5,503.32 943.93,475.92 906,517.78 C890.72,534.65 900.58,553.071 917.56,570.781" style="stroke:#181818;stroke-width:1;stroke-dasharray:7,7;" fill="none" id="RES-to-PAY"/><polygon points="921.02,574.39,917.679,565.125,917.56,570.781,911.904,570.662,921.02,574.39" fill="#181818" style="stroke:#181818;stroke-width:1;stroke-linejoin:miter;stroke-miterlimit:10;"/><text x="907" y="538.347" fill="#000" font-size="13" textLength="65.248">IPaiement</text></g><!--link RES to NOT--><g class="link" data-entity-1="ent0007" data-entity-2="ent0012" id="lnk28" data-source-line="50" data-link-type="dependency"><path d="M1174.89,486.58 C1159.6,493.59 1145.04,503.58 1136,517.78 C1128.36,529.78 1128.56,537.66 1136,549.78 C1142,559.55 1146.242,564.743 1155.632,571.453" style="stroke:#181818;stroke-width:1;stroke-dasharray:7,7;" fill="none" id="RES-to-NOT"/><polygon points="1159.7,574.36,1154.703,565.873,1155.632,571.453,1150.052,572.382,1159.7,574.36" fill="#181818" style="stroke:#181818;stroke-width:1;stroke-linejoin:miter;stroke-miterlimit:10;"/><text x="1236.807" y="530.847" fill="#000" font-size="13" textLength="84.748">IEvenements</text><text x="1137" y="545.98" fill="#000" font-size="13" textLength="284.362">ReservationConfirmee, ReservationAnnulee</text></g><!--link FAC to RES--><g class="link" data-entity-1="ent0009" data-entity-2="ent0007" id="lnk29" data-source-line="51" data-link-type="dependency"><path d="M1237,364.92 C1237,387.9 1237,418.33 1237,441.25" style="stroke:#181818;stroke-width:1;stroke-dasharray:7,7;" fill="none" id="FAC-to-RES"/><polygon points="1237,446.25,1241,437.25,1237,441.25,1233,437.25,1237,446.25" fill="#181818" style="stroke:#181818;stroke-width:1;stroke-linejoin:miter;stroke-miterlimit:10;"/><text x="1270.77" y="402.557" fill="#000" font-size="13" textLength="167.711">IConsommationMensuelle</text><text x="1238" y="417.69" fill="#000" font-size="13" textLength="233.251">(P1 — couplage par la base corrigé)</text></g><!--link FAC to TAR--><g class="link" data-entity-1="ent0009" data-entity-2="ent0010" id="lnk30" data-source-line="52" data-link-type="dependency"><path d="M1297.27,347.58 C1359.43,354.11 1450.98,367.21 1478,389.49 C1535.79,437.13 1563.55,482.82 1530,549.78 C1523.32,563.12 1515.801,571.171 1503.751,579.701" style="stroke:#181818;stroke-width:1;stroke-dasharray:7,7;" fill="none" id="FAC-to-TAR"/><polygon points="1499.67,582.59,1509.327,580.655,1503.751,579.701,1504.705,574.125,1499.67,582.59" fill="#181818" style="stroke:#181818;stroke-width:1;stroke-linejoin:miter;stroke-miterlimit:10;"/><text x="1545.45" y="474.197" fill="#000" font-size="13" textLength="76.902">ITarification</text></g><!--link FAC to NOT--><g class="link" data-entity-1="ent0009" data-entity-2="ent0012" id="lnk31" data-source-line="53" data-link-type="dependency"><path d="M1176.6,344.52 C1107.55,350.63 997.34,372.25 945,446.49 C933.14,463.3 940.34,472.74 945,492.78 C951.39,520.27 950.5,532.75 973,549.78 C1022,586.88 1048.77,562.54 1109,574.78 C1113.62,575.72 1113.437,575.66 1118.187,576.66" style="stroke:#181818;stroke-width:1;stroke-dasharray:7,7;" fill="none" id="FAC-to-NOT"/><polygon points="1123.08,577.69,1115.097,571.922,1118.187,576.66,1113.449,579.75,1123.08,577.69" fill="#181818" style="stroke:#181818;stroke-width:1;stroke-linejoin:miter;stroke-miterlimit:10;"/><text x="947.892" y="466.697" fill="#000" font-size="13" textLength="84.748">IEvenements</text><text x="946" y="481.83" fill="#000" font-size="13" textLength="88.531">FactureEmise</text></g><!--link ATL to NOT--><g class="link" data-entity-1="ent0008" data-entity-2="ent0012" id="lnk32" data-source-line="54" data-link-type="dependency"><path d="M1050.07,484.79 C1023.34,493.9 993.68,506.17 986,517.78 C978.15,529.64 977,538.77 986,549.78 C1021.3,592.98 1054.44,563.16 1109,574.78 C1113.61,575.76 1113.424,575.71 1118.174,576.74" style="stroke:#181818;stroke-width:1;stroke-dasharray:7,7;" fill="none" id="ATL-to-NOT"/><polygon points="1123.06,577.8,1115.112,571.984,1118.174,576.74,1113.417,579.802,1123.06,577.8" fill="#181818" style="stroke:#181818;stroke-width:1;stroke-linejoin:miter;stroke-miterlimit:10;"/><text x="1012.41" y="530.847" fill="#000" font-size="13" textLength="84.748">IEvenements</text><text x="987" y="545.98" fill="#000" font-size="13" textLength="135.567">InscriptionConfirmee</text></g><!--link TAR to CPT--><g class="link" data-entity-1="ent0010" data-entity-2="ent0006" id="lnk33" data-source-line="55" data-link-type="dependency"><path d="M1443.89,629.42 C1437.65,643.98 1432.57,663.2 1439,679.38 C1446.93,699.33 1459.417,713.696 1474.147,726.666" style="stroke:#181818;stroke-width:1;stroke-dasharray:7,7;" fill="none" id="TAR-to-CPT"/><polygon points="1477.9,729.97,1473.789,721.02,1474.147,726.666,1468.502,727.024,1477.9,729.97" fill="#181818" style="stroke:#181818;stroke-width:1;stroke-linejoin:miter;stroke-miterlimit:10;"/><text x="1440" y="675.447" fill="#000" font-size="13" textLength="126.915">IAbonnementQuery</text></g><!--link RES to REPO--><g class="link" data-entity-1="ent0007" data-entity-2="ent0014" id="lnk34" data-source-line="58" data-link-type="dependency"><path d="M1175.08,489.32 C1169.67,490.62 1164.26,491.8 1159,492.78 C1041.85,514.71 1009.27,496.49 892,517.78 C609.65,569.04 460.33,473.5 269,687.38 C226.58,734.79 225.647,808.361 230.007,855.291" style="stroke:#181818;stroke-width:1;stroke-dasharray:7,7;" fill="none" id="RES-to-REPO"/><polygon points="230.47,860.27,233.62,850.939,230.007,855.291,225.655,851.679,230.47,860.27" fill="#181818" style="stroke:#181818;stroke-width:1;stroke-linejoin:miter;stroke-miterlimit:10;"/></g><!--link FAC to REPO--><g class="link" data-entity-1="ent0009" data-entity-2="ent0014" id="lnk35" data-source-line="59" data-link-type="dependency"><path d="M1176.91,342.71 C943.79,344.94 112,360.48 112,468.63 C112,468.63 112,468.63 112,754.52 C112,797.85 140.583,831.545 172.293,857.205" style="stroke:#181818;stroke-width:1;stroke-dasharray:7,7;" fill="none" id="FAC-to-REPO"/><polygon points="176.18,860.35,171.7,851.579,172.293,857.205,166.668,857.798,176.18,860.35" fill="#181818" style="stroke:#181818;stroke-width:1;stroke-linejoin:miter;stroke-miterlimit:10;"/></g><!--link ATL to REPO--><g class="link" data-entity-1="ent0008" data-entity-2="ent0014" id="lnk36" data-source-line="60" data-link-type="dependency"><path d="M1050.24,490.73 C1047.48,491.52 1044.72,492.21 1042,492.78 C996.9,502.23 245.09,484.71 213,517.78 C122.94,610.6 181.404,778.695 215.344,855.715" style="stroke:#181818;stroke-width:1;stroke-dasharray:7,7;" fill="none" id="ATL-to-REPO"/><polygon points="217.36,860.29,217.391,850.441,215.344,855.715,210.07,853.667,217.36,860.29" fill="#181818" style="stroke:#181818;stroke-width:1;stroke-linejoin:miter;stroke-miterlimit:10;"/></g><!--link CPT to REPO--><g class="link" data-entity-1="ent0006" data-entity-2="ent0014" id="lnk37" data-source-line="61" data-link-type="dependency"><path d="M1407.13,765.99 C1200.8,789.44 731.648,842.775 454.068,874.325" style="stroke:#181818;stroke-width:1;stroke-dasharray:7,7;" fill="none" id="CPT-to-REPO"/><polygon points="449.1,874.89,458.494,877.848,454.068,874.325,457.591,869.899,449.1,874.89" fill="#181818" style="stroke:#181818;stroke-width:1;stroke-linejoin:miter;stroke-miterlimit:10;"/></g><!--link TAR to REPO--><g class="link" data-entity-1="ent0010" data-entity-2="ent0014" id="lnk38" data-source-line="62" data-link-type="dependency"><path d="M1402.94,629.72 C1395.95,632.43 1388.84,635.06 1382,637.38 C1119.87,726.27 1051,739.73 781,800.67 C672.2,825.23 555.028,846.907 454.018,864.187" style="stroke:#181818;stroke-width:1;stroke-dasharray:7,7;" fill="none" id="TAR-to-REPO"/><polygon points="449.09,865.03,458.636,867.455,454.018,864.187,457.287,859.57,449.09,865.03" fill="#181818" style="stroke:#181818;stroke-width:1;stroke-linejoin:miter;stroke-miterlimit:10;"/></g><!--link REPO to DB--><g class="link" data-entity-1="ent0014" data-entity-2="ent0015" id="lnk39" data-source-line="63" data-link-type="dependency"><path d="M236,939.97 C236,956.87 236,971.03 236,985.37" style="stroke:#181818;stroke-width:1;stroke-dasharray:7,7;" fill="none" id="REPO-to-DB"/><polygon points="236,990.37,240,981.37,236,985.37,232,981.37,236,990.37" fill="#181818" style="stroke:#181818;stroke-width:1;stroke-linejoin:miter;stroke-miterlimit:10;"/></g><!--link PAY to PSP--><g class="link" data-entity-1="ent0011" data-entity-2="ent0017" id="lnk40" data-source-line="66" data-link-type="dependency"><path d="M822.1,622.82 C739.7,634.93 633.39,655.19 543,687.38 C510,699.13 478.754,713.959 452.084,727.709" style="stroke:#181818;stroke-width:1;stroke-dasharray:7,7;" fill="none" id="PAY-to-PSP"/><polygon points="447.64,730,457.472,729.431,452.084,727.709,453.806,722.32,447.64,730" fill="#181818" style="stroke:#181818;stroke-width:1;stroke-linejoin:miter;stroke-miterlimit:10;"/><text x="621.1" y="675.447" fill="#000" font-size="13" textLength="82.913">HTTPS, jeton</text></g><!--link NOT to MAIL--><g class="link" data-entity-1="ent0012" data-entity-2="ent0018" id="lnk41" data-source-line="67" data-link-type="dependency"><path d="M1122.8,635 C1118.15,635.84 1113.54,636.64 1109,637.38 C1002.71,654.67 972.44,636.13 868,662.38 C839.58,669.52 833.92,675.81 807,687.38 C774.92,701.15 743.691,715.15 715.701,727.88" style="stroke:#181818;stroke-width:1;stroke-dasharray:7,7;" fill="none" id="NOT-to-MAIL"/><polygon points="711.15,729.95,720.998,729.865,715.701,727.88,717.687,722.583,711.15,729.95" fill="#181818" style="stroke:#181818;stroke-width:1;stroke-linejoin:miter;stroke-miterlimit:10;"/><text x="869" y="675.447" fill="#000" font-size="13" textLength="68.459">SMTP / API</text></g><g class="legend" data-source-line="69"><rect x="12" y="1071.86" width="662.278" height="58.891" fill="#DDD" style="stroke:#000;stroke-width:1;" rx="7.5" ry="7.5"/><text x="17" y="1089.855" fill="#000" font-size="14" textLength="461.05">Flèche pointillée = dépendance, étiquetée par l'interface requise.</text><text x="17" y="1106.152" fill="#000" font-size="14" textLength="485.919">Aucune flèche ne remonte : c'est le critère de validité du découpage.</text><text x="17" y="1122.449" fill="#000" font-size="14" textLength="652.278">Facturation ne lit jamais les tables de Réservation : elle passe par IConsommationMensuelle.</text></g><?plantuml-src XLRTRkD45BxtKnprWgHI6fQk00a4KfgcsaZzSHDNAyHoCNKcwMpj6NTctAL2I7l50o2U0JNt-mP-apu9tnaxZWC1SX7Pvypv-yvtphX7fqgihCXpIGj9gSaBuuJsZbu-_a5ZyzRO-zvKKrzucIbfwNZu-Z3gqQnwNcN1P56j2waNGgUIlg5CEbfcrNDwXuU5T2bKKdlofdnlIkleKU8FbdcrzkolA5KhX8NHkbfBDw3t8XVGP3sbMIk723g-4m-btFYdmYZjLPR1WAJpLEgTR0R48M3W-K0XB9nDBvF9x6mqdj1iSdqpdK_eeUp93FbuAq8S-XQ1iWuITPXgJMTNDxFBQKAfz5uIPD8k1Ohk8wONAYD4THq4X_bYG4wcNXbDhuV7XyF8cm98qAtntkIqKBRMHkvUQIGeyjfS0x6vVq8MPPuTTxJkJYpC1wLNj1IPanrD8T9xiPAr5RiL6ltf7D06tP05lNxL4LgXxrduvQieQZpGmTYK0LrRhHqI4PpX0VqI4VtuLjw24n_02MdVwNuuOH_3YG4r347l08ilhNI7Fv5mT3CTi-q9_1-PvLAb4gOYJKkfiW6jgZMoy33NAeUBqcwiJjXg54_Hgda2azHeRwjF6OuWncboDQ17aQb52CzCN1eB3xKvxA9V_rbKmxgcd370HYi_epjngp9Lb-g2_JXE-CIiKs6G8vUGLbDh7IivPzbPg7fx53HZSIAiGj5RUJAQiJmM3gu3zmgXP0weKMHXhATft0Y0oa8KFi12yJokQuj7Fx23I-DRnpKypl0OynnLwyTghOEFfWkNLya-G3O3ro1oYl6fFddtJizaM_ZHWEhQ99wQol5qWzbJBkGsa-2yyiO-lNpy4xcelC1KSdIUVH1lEowEHtIfjC9JcCcsAOSDmF4LCa5NnQt0E1x4nlcLbVFhymFMdvxib35_Shvwpk5C_em8kgqa1ly0dC2CCJSs45D_z5M3uZpcStDK2KhIeYUFi74o7gx-wElwpCLeUixXUdJK_YZk3WQz_FPxkyksXoAGdeR3xmCFGUNscVdCp-0HjkMqWtAh0frOjQ5OAmUVMDwqOYi7LLd-fiFXlsLykbsAm0bJjBFezsJFsR5hK9LTTodSwfgmerimA41xNKhxrAf1KbPlcDpAmKEMJnvbGyyTgesDNYgRIoplZdIaTPb96J427V36DUF3aGkfNSd31FR5NuJBApLbaJ590iq41Jgbnbg5dNFOEjjNuqQt9za6_acki7-vLVzoRgfTQbMnKrJ4iVu3kzskNJHzOOPjnfJwzNNORBpERNUuhtzXcBQeuMMJSNZXDDgNJMxXXV_26yPjDwjHkv1So0nZXmskU45r4k3k1nRCOnJw9adYEQvqwO4jOyKgdYtevXT9J9-7sOWokK8rc-inaqkF2JtRSzj_zt_t_FPsjl81NnZuV20QbIb_8cm-7pGhSrmg_DsIzlWBWkzzgx1GwgKHhXV5T_-Yv8ZCA12AVNMMFJl2uBLVBEWITbVucf7KlK0GfbdtsFmXqVqK7aQehCOY-Wi0?></g></svg>